<svg width="52" height="55" viewBox="0 0 52 55" fill="none" xmlns="http://www.w3.org/2000/svg">
<path d="M38.0417 5.83332C37.3234 5.83332 36.6345 5.54798 36.1266 5.04007C35.6187 4.53216 35.3333 3.84328 35.3333 3.12499C35.3333 2.4067 35.6187 1.71782 36.1266 1.20991C36.6345 0.701998 37.3234 0.416656 38.0417 0.416656H48.875C49.5933 0.416656 50.2822 0.701998 50.7901 1.20991C51.298 1.71782 51.5833 2.4067 51.5833 3.12499V13.9583C51.5833 14.6766 51.298 15.3655 50.7901 15.8734C50.2822 16.3813 49.5933 16.6667 48.875 16.6667C48.1567 16.6667 47.4678 16.3813 46.9599 15.8734C46.452 15.3655 46.1667 14.6766 46.1667 13.9583V9.66291L30.4773 25.3523C29.9694 25.86 29.2807 26.1452 28.5625 26.1452C27.8443 26.1452 27.1556 25.86 26.6477 25.3523L19.0833 17.7879L4.74812 32.1231C4.23733 32.6165 3.5532 32.8894 2.84308 32.8833C2.13296 32.8771 1.45368 32.5923 0.951533 32.0901C0.449386 31.588 0.164554 30.9087 0.158383 30.1986C0.152212 29.4885 0.425197 28.8043 0.918542 28.2935L17.1685 12.0435C17.6764 11.5358 18.3652 11.2506 19.0833 11.2506C19.8015 11.2506 20.4902 11.5358 20.9981 12.0435L28.5625 19.6079L42.3371 5.83332H38.0417ZM5.54167 43.75V51.875C5.54167 52.5933 5.25632 53.2822 4.74841 53.7901C4.2405 54.298 3.55163 54.5833 2.83333 54.5833C2.11504 54.5833 1.42616 54.298 0.918252 53.7901C0.410341 53.2822 0.125 52.5933 0.125 51.875V43.75C0.125 43.0317 0.410341 42.3428 0.918252 41.8349C1.42616 41.327 2.11504 41.0417 2.83333 41.0417C3.55163 41.0417 4.2405 41.327 4.74841 41.8349C5.25632 42.3428 5.54167 43.0317 5.54167 43.75ZM19.0833 32.9167C19.0833 32.1984 18.798 31.5095 18.2901 31.0016C17.7822 30.4937 17.0933 30.2083 16.375 30.2083C15.6567 30.2083 14.9678 30.4937 14.4599 31.0016C13.952 31.5095 13.6667 32.1984 13.6667 32.9167V51.875C13.6667 52.5933 13.952 53.2822 14.4599 53.7901C14.9678 54.298 15.6567 54.5833 16.375 54.5833C17.0933 54.5833 17.7822 54.298 18.2901 53.7901C18.798 53.2822 19.0833 52.5933 19.0833 51.875V32.9167ZM29.9167 35.625C30.635 35.625 31.3238 35.9103 31.8317 36.4182C32.3397 36.9262 32.625 37.615 32.625 38.3333V51.875C32.625 52.5933 32.3397 53.2822 31.8317 53.7901C31.3238 54.298 30.635 54.5833 29.9167 54.5833C29.1984 54.5833 28.5095 54.298 28.0016 53.7901C27.4937 53.2822 27.2083 52.5933 27.2083 51.875V38.3333C27.2083 37.615 27.4937 36.9262 28.0016 36.4182C28.5095 35.9103 29.1984 35.625 29.9167 35.625ZM46.1667 24.7917C46.1667 24.0734 45.8813 23.3845 45.3734 22.8766C44.8655 22.3687 44.1766 22.0833 43.4583 22.0833C42.74 22.0833 42.0512 22.3687 41.5433 22.8766C41.0353 23.3845 40.75 24.0734 40.75 24.7917V51.875C40.75 52.5933 41.0353 53.2822 41.5433 53.7901C42.0512 54.298 42.74 54.5833 43.4583 54.5833C44.1766 54.5833 44.8655 54.298 45.3734 53.7901C45.8813 53.2822 46.1667 52.5933 46.1667 51.875V24.7917Z" fill="#FD7F30"/>
</svg>
