<svg width="57" height="65" viewBox="0 0 57 65" fill="none" xmlns="http://www.w3.org/2000/svg">
<path d="M44.75 20.3125V16.25C44.75 7.28965 37.4602 0 28.5 0C19.5396 0 12.25 7.28965 12.25 16.25V20.3125H0.0625V54.8438C0.0625 60.4529 4.60958 65 10.2188 65H46.7812C52.3904 65 56.9375 60.4529 56.9375 54.8438V20.3125H44.75ZM20.375 16.25C20.375 11.7698 24.0198 8.125 28.5 8.125C32.9802 8.125 36.625 11.7698 36.625 16.25V20.3125H20.375V16.25ZM40.6875 31.4844C39.0047 31.4844 37.6406 30.1203 37.6406 28.4375C37.6406 26.7547 39.0047 25.3906 40.6875 25.3906C42.3703 25.3906 43.7344 26.7547 43.7344 28.4375C43.7344 30.1203 42.3703 31.4844 40.6875 31.4844ZM16.3125 31.4844C14.6297 31.4844 13.2656 30.1203 13.2656 28.4375C13.2656 26.7547 14.6297 25.3906 16.3125 25.3906C17.9953 25.3906 19.3594 26.7547 19.3594 28.4375C19.3594 30.1203 17.9953 31.4844 16.3125 31.4844Z" fill="#FF6869"/>
</svg>
