<svg width="55" height="55" viewBox="0 0 55 55" fill="none" xmlns="http://www.w3.org/2000/svg">
<path fill-rule="evenodd" clip-rule="evenodd" d="M54.5833 27.5C54.5833 42.4581 42.4581 54.5833 27.5 54.5833C12.5419 54.5833 0.416672 42.4581 0.416672 27.5C0.416672 12.5419 12.5419 0.416656 27.5 0.416656C42.4581 0.416656 54.5833 12.5419 54.5833 27.5ZM27.5 9.21874C28.0387 9.21874 28.5554 9.43275 28.9363 9.81368C29.3172 10.1946 29.5313 10.7113 29.5313 11.25V12.1085C33.9458 12.8994 37.6563 16.2171 37.6563 20.7292C37.6563 21.2679 37.4422 21.7845 37.0613 22.1655C36.6804 22.5464 36.1637 22.7604 35.625 22.7604C35.0863 22.7604 34.5696 22.5464 34.1887 22.1655C33.8078 21.7845 33.5938 21.2679 33.5938 20.7292C33.5938 18.8929 32.0663 16.9456 29.5313 16.2523V25.6502C33.9458 26.441 37.6563 29.7587 37.6563 34.2708C37.6563 38.7829 33.9458 42.1006 29.5313 42.8915V43.75C29.5313 44.2887 29.3172 44.8054 28.9363 45.1863C28.5554 45.5672 28.0387 45.7812 27.5 45.7812C26.9613 45.7812 26.4446 45.5672 26.0637 45.1863C25.6828 44.8054 25.4688 44.2887 25.4688 43.75V42.8915C21.0542 42.1006 17.3438 38.7829 17.3438 34.2708C17.3438 33.7321 17.5578 33.2155 17.9387 32.8345C18.3196 32.4536 18.8363 32.2396 19.375 32.2396C19.9137 32.2396 20.4304 32.4536 20.8113 32.8345C21.1922 33.2155 21.4063 33.7321 21.4063 34.2708C21.4063 36.1071 22.9338 38.0544 25.4688 38.745V29.3498C21.0542 28.5589 17.3438 25.2412 17.3438 20.7292C17.3438 16.2171 21.0542 12.8994 25.4688 12.1085V11.25C25.4688 10.7113 25.6828 10.1946 26.0637 9.81368C26.4446 9.43275 26.9613 9.21874 27.5 9.21874Z" fill="#6597FF"/>
</svg>
